<svg xmlns="http://www.w3.org/2000/svg" height="1200" width="1600" version="1.1" xmlns:xlink="http://www.w3.org/1999/xlink" xmlns:svgjs="http://svgjs.com/svgjs"><rect fill="#f5f7f8" width="1600" height="1200"></rect><g><path d="M1288.39 1008.81L193.78 1008.81" stroke="#333333" stroke-width="2" stroke-linecap="round" stroke-linejoin="round" opacity="1" fill="none"></path><path d="M1025.2 1019.1L575.9 1019.1" stroke="#333333" stroke-width="2" stroke-linecap="round" stroke-linejoin="round" opacity="1" fill="none"></path><path d="M1119.9 1038.04L741.08 1038.04" stroke="#333333" stroke-width="2" stroke-linecap="round" stroke-linejoin="round" opacity="1" fill="none"></path><path d="M1406.22 1038.04L1235.53 1038.04" stroke="#333333" stroke-width="2" stroke-linecap="round" stroke-linejoin="round" opacity="1" fill="none"></path></g><g><path d="M950.7 669.5H847.2C842.4 669.5 838.5 665.6 838.5 660.8V654.1C838.5 649.3 842.4 645.4 847.2 645.4H950.7V669.5Z" fill="#b14749" stroke="#333333" stroke-width="2" stroke-linecap="round" stroke-linejoin="round" opacity="1"></path><path d="M891.7 621.7L799.4 668.6C795.1 670.8 789.8 669.1 787.6 664.8L784.6 658.9C782.4 654.6 784.1 649.3 788.4 647.1L880.7 600.2 891.7 621.7Z" fill="#b14749" stroke="#333333" stroke-width="2" stroke-linecap="round" stroke-linejoin="round" opacity="1"></path></g><g><path d="M1401.1 487.78L1427.58 495.47 1401.63 523.03 1419.79 526.21 1420.72 543.19" stroke="#333333" stroke-width="2" stroke-linecap="round" stroke-linejoin="round" opacity="1" fill="none"></path><path d="M1374.62 480.1L1392.77 485.34" stroke="#333333" stroke-width="2" stroke-linecap="round" stroke-linejoin="round" opacity="1" fill="none"></path><path d="M1307.38 387.09C1307.39 387.65 1374.81 404.39 1374.81 404.39L1347.8 437.86 1374.69 444.5 1352.44 473.88 1364.54 477.37" stroke="#333333" stroke-width="2" stroke-linecap="round" stroke-linejoin="round" opacity="1" fill="none"></path></g><g><path d="M711.76 529.73C716.63 529.73 720.58 525.78 720.58 520.91 720.58 516.03 716.63 512.08 711.76 512.08 706.88 512.08 702.93 516.03 702.93 520.91 702.93 525.78 706.88 529.73 711.76 529.73Z" fill="#c8b0af" stroke="#333333" stroke-width="2" stroke-linecap="round" stroke-linejoin="round" opacity="1"></path><path d="M580.47 445.35C585.34 445.35 589.29 441.39 589.29 436.52 589.29 431.65 585.34 427.7 580.47 427.7 575.6 427.7 571.64 431.65 571.64 436.52 571.64 441.39 575.6 445.35 580.47 445.35Z" fill="#c8b0af" stroke="#333333" stroke-width="2" stroke-linecap="round" stroke-linejoin="round" opacity="1"></path><path d="M587.03 537.8C589.32 537.8 591.17 535.94 591.17 533.65 591.17 531.36 589.32 529.5 587.03 529.5 584.73 529.5 582.88 531.36 582.88 533.65 582.88 535.94 584.73 537.8 587.03 537.8Z" fill="#c8b0af" stroke="#333333" stroke-width="2" stroke-linecap="round" stroke-linejoin="round" opacity="1"></path><path d="M772.01 535.08C774.3 535.08 776.16 533.23 776.16 530.94 776.16 528.64 774.3 526.79 772.01 526.79 769.72 526.79 767.86 528.64 767.86 530.94 767.86 533.23 769.72 535.08 772.01 535.08Z" fill="#c8b0af" stroke="#333333" stroke-width="2" stroke-linecap="round" stroke-linejoin="round" opacity="1"></path></g><g><path d="M669.06 492.92L652.77 498.28 681.52 585.71 697.81 580.35 669.06 492.92Z" fill="#ffffff" stroke="#333333" stroke-width="2" stroke-linecap="round" stroke-linejoin="round" opacity="1"></path><path d="M716.61 665.16C744.94 655.84 760.36 625.32 751.04 596.99 741.73 568.65 711.2 553.23 682.87 562.55 654.53 571.86 639.12 602.39 648.43 630.72 657.75 659.06 688.27 674.48 716.61 665.16Z" fill="#b14749" stroke="#333333" stroke-width="2" stroke-linecap="round" stroke-linejoin="round" opacity="1"></path><path d="M690.56 648.68C679.14 645.68 669.43 637.08 665.5 625.11" stroke="#333333" stroke-width="2" stroke-linecap="round" stroke-linejoin="round" opacity="1" fill="none"></path><path d="M711 648.1C706.79 649.48 702.54 650.02 698.45 649.89" stroke="#333333" stroke-width="2" stroke-linecap="round" stroke-linejoin="round" opacity="1" fill="none"></path></g><g><path d="M445.69 525.85L520.48 513.37 518.52 448.24 499.99 428.3 469.82 435 441.5 433.43 410.55 495.23 445.69 525.85Z" fill="#ac282e" stroke="#333333" stroke-width="2" stroke-linecap="round" stroke-linejoin="round" opacity="1"></path><path d="M520.13 506.92L426.99 496.19" stroke="#333333" stroke-width="2" stroke-linecap="round" stroke-linejoin="round" opacity="1" fill="none"></path><path d="M508.57 483.55L429.49 474.43" stroke="#333333" stroke-width="2" stroke-linecap="round" stroke-linejoin="round" opacity="1" fill="none"></path><path d="M494.16 459.84L432 452.68" stroke="#333333" stroke-width="2" stroke-linecap="round" stroke-linejoin="round" opacity="1" fill="none"></path><path d="M518.95 462.7L505.96 461.2" stroke="#333333" stroke-width="2" stroke-linecap="round" stroke-linejoin="round" opacity="1" fill="none"></path><path d="M510.54 439.69L469.82 435" stroke="#333333" stroke-width="2" stroke-linecap="round" stroke-linejoin="round" opacity="1" fill="none"></path><path d="M489.15 503.35L487.36 518.87" stroke="#333333" stroke-width="2" stroke-linecap="round" stroke-linejoin="round" opacity="1" fill="none"></path><path d="M493.12 468.86L491.65 481.6" stroke="#333333" stroke-width="2" stroke-linecap="round" stroke-linejoin="round" opacity="1" fill="none"></path><path d="M455.9 499.52L454.06 515.51" stroke="#333333" stroke-width="2" stroke-linecap="round" stroke-linejoin="round" opacity="1" fill="none"></path><path d="M460.92 456.01L459.43 468.93" stroke="#333333" stroke-width="2" stroke-linecap="round" stroke-linejoin="round" opacity="1" fill="none"></path><path d="M474.34 479.6L471.84 501.35" stroke="#333333" stroke-width="2" stroke-linecap="round" stroke-linejoin="round" opacity="1" fill="none"></path><path d="M477.93 448.46L476.85 457.85" stroke="#333333" stroke-width="2" stroke-linecap="round" stroke-linejoin="round" opacity="1" fill="none"></path><path d="M441 475.76L439.92 485.15" stroke="#333333" stroke-width="2" stroke-linecap="round" stroke-linejoin="round" opacity="1" fill="none"></path><path d="M445.69 525.85L465.2 541.66 454.73 556.37 463.98 569.49 457.86 585.46" stroke="#333333" stroke-width="2" stroke-linecap="round" stroke-linejoin="round" opacity="1" fill="none"></path><path d="M499.99 428.3L507.1 401.15 488.56 385.63 488.88 353.46 511.29 332.87 491.01 307.26 515.17 300.91 512.16 280.31" stroke="#333333" stroke-width="2" stroke-linecap="round" stroke-linejoin="round" opacity="1" fill="none"></path><path d="M488.88 353.46L460.62 355.66" stroke="#333333" stroke-width="2" stroke-linecap="round" stroke-linejoin="round" opacity="1" fill="none"></path></g><g><path d="M410.31 498.62L357.49 492.26 327.51 461.88 332.61 438.63 304.16 402.05 321 379.42 297.78 344.23 321.51 330.13 318.58 296.65" stroke="#333333" stroke-width="2" stroke-linecap="round" stroke-linejoin="round" opacity="1" fill="none"></path><path d="M357.49 492.26L307.61 541.86 280.18 534.58 280.43 575.19 253.64 594.56V634.71" stroke="#333333" stroke-width="2" stroke-linecap="round" stroke-linejoin="round" opacity="1" fill="none"></path></g><g><path d="M435.3 352.59L339.81 329.46 299.26 496.82 430.49 528.61 471.03 361.25 444.16 354.74" fill="#b14749" opacity="1" stroke-width="2" stroke="none"></path><path d="M435.3 352.59L339.81 329.46 299.26 496.82 430.49 528.61 471.03 361.25 444.16 354.74" stroke="#333333" stroke-width="2" stroke-linecap="round" stroke-linejoin="round" opacity="1" fill="none"></path><path d="M420.92 470.01L408 523.37 321.95 502.52 334.88 449.17C335.6 446.21 336.9 443.4 338.43 440.96 342.59 434.57 349.56 430.31 357.12 429.64 359.89 429.38 362.75 429.65 365.5 430.32L402.02 439.17C415.71 442.48 424.26 456.23 420.92 470.01Z" fill="#ffffff" stroke="#333333" stroke-width="2" stroke-linecap="round" stroke-linejoin="round" opacity="1"></path><path d="M366.12 407.12C366.12 407.12 386.31 392.63 411.12 408.96 413.88 410.88 412.86 425.85 411.91 429.79 411.24 432.54 410.18 435.2 408.79 437.47 408.45 438.02 407.97 438.73 407.53 439.25 401.47 447.48 390.74 451.76 380.21 449.2 368.79 446.44 361.03 436.74 360.26 425.72 360.07 423.06 360.32 420.31 361.01 417.45 361.96 413.52 363.76 409.99 366.12 407.12Z" fill="#ffffff" stroke="#333333" stroke-width="2" stroke-linecap="round" stroke-linejoin="round" opacity="1"></path><path d="M366.12 407.12C368.55 397.08 378.63 390.77 388.87 393.25L419.19 400.59 416.25 412.7 412.25 429.24 412.1 429.83C405.8 428.31 401.75 422.22 402.74 416L366.12 407.12V407.12Z" fill="#53555b" stroke="#333333" stroke-width="2" stroke-linecap="round" stroke-linejoin="round" opacity="1"></path><path d="M373.8 418.88L371.86 426.86" stroke="#333333" stroke-width="2" stroke-linecap="round" stroke-linejoin="round" opacity="1" fill="none"></path><path d="M378.66 428.5C378.2 430.37 376.37 431.49 374.5 431.04 372.53 430.56 371.41 428.73 371.86 426.86" stroke="#333333" stroke-width="2" stroke-linecap="round" stroke-linejoin="round" opacity="1" fill="none"></path><path d="M389.14 518.59L365.32 512.82 338.14 440.89C342.39 434.52 349.26 430.24 356.82 429.57L389.14 518.59Z" fill="#c8b0af" stroke="#333333" stroke-width="2" stroke-linecap="round" stroke-linejoin="round" opacity="1"></path><path d="M371.44 500.02L377.33 515.73" stroke="#333333" stroke-width="2" stroke-linecap="round" stroke-linejoin="round" opacity="1" fill="none"></path><path d="M349.91 441.34L369.16 493.53" stroke="#333333" stroke-width="2" stroke-linecap="round" stroke-linejoin="round" opacity="1" fill="none"></path><path d="M386.97 476.79L404.2 480.97" stroke="#333333" stroke-width="2" stroke-linecap="round" stroke-linejoin="round" opacity="1" fill="none"></path></g><g><path d="M1278.97 658.86V709.7H1030.25V348.5H1278.97V584.79" fill="#b14749" opacity="1" stroke-width="2" stroke="none"></path><path d="M1278.97 658.86V709.7H1030.25V348.5H1278.97V584.79" stroke="#333333" stroke-width="2" stroke-linecap="round" stroke-linejoin="round" opacity="1" fill="none"></path><path d="M1003.47 709.7H1305.75" stroke="#333333" stroke-width="2" stroke-linecap="round" stroke-linejoin="round" opacity="1" fill="none"></path><path d="M1003.47 348.5H1305.75" stroke="#333333" stroke-width="2" stroke-linecap="round" stroke-linejoin="round" opacity="1" fill="none"></path><path d="M1278.97 635.82V608.21" stroke="#333333" stroke-width="2" stroke-linecap="round" stroke-linejoin="round" opacity="1" fill="none"></path><path d="M1154.83 348.5V709.7" stroke="#333333" stroke-width="2" stroke-linecap="round" stroke-linejoin="round" opacity="1" fill="none"></path><path d="M1278.97 529.01H1081.78" stroke="#333333" stroke-width="2" stroke-linecap="round" stroke-linejoin="round" opacity="1" fill="none"></path><path d="M1062.61 529.01H1030.25" stroke="#333333" stroke-width="2" stroke-linecap="round" stroke-linejoin="round" opacity="1" fill="none"></path></g><g><path d="M720.66 344.15C732.95 346.74 745.01 338.89 747.6 326.6 750.19 314.31 742.33 302.25 730.04 299.66 717.75 297.06 705.69 304.92 703.1 317.21 700.51 329.5 708.37 341.56 720.66 344.15Z" fill="#c8b0af" stroke="#333333" stroke-width="2" stroke-linecap="round" stroke-linejoin="round" opacity="1"></path><path d="M634.1 310.6L735.98 271.5 813.39 348.41 634.1 310.6Z" fill="#b14749" stroke="#333333" stroke-width="2" stroke-linecap="round" stroke-linejoin="round" opacity="1"></path><path d="M735.98 271.5L749.9 205.48" stroke="#333333" stroke-width="2" stroke-linecap="round" stroke-linejoin="round" opacity="1" fill="none"></path></g><g><path d="M840.1 776.3H825.5L822.6 750 760.1 754.7 760.6 759.2 762 770.8 762.7 776.3H732V901.7 994.7L870.7 993.6C894.7 993.6 916.1 996.5 929.7 978.9 939.4 966.3 945.2 950.6 945.2 933.5V881.3C945.1 823.2 898.1 776.3 840.1 776.3Z" fill="#ffffff" stroke="#333333" stroke-width="2" stroke-linecap="round" stroke-linejoin="round" opacity="1"></path><path d="M770.8 894.7L783.2 913.6C771.5 940.4 741.8 954.3 713.7 946.3 685.4 938.2 667.6 910.2 672.3 881.1L693.3 750.2 754.7 762.9 736.5 868 770.8 894.7Z" fill="#ffffff" stroke="#333333" stroke-width="2" stroke-linecap="round" stroke-linejoin="round" opacity="1"></path><path d="M706.7 786.7C704.7 792.6 704 799.1 704.8 805.7 705.4 810.3 706.7 814.7 708.5 818.7 716.2 835.2 733.9 845.6 752.9 843.3 759.2 842.5 765 840.4 770.1 837.3L762 770.8C730.2 760.3 706.7 786.7 706.7 786.7Z" fill="#ffffff" stroke="#333333" stroke-width="2" stroke-linecap="round" stroke-linejoin="round" opacity="1"></path><path d="M725.3 801.6L726.9 813.8" stroke="#333333" stroke-width="2" stroke-linecap="round" stroke-linejoin="round" opacity="1" fill="none"></path><path d="M738.4 812.4C738.8 815.6 736.5 818.5 733.4 818.9 730.3 819.3 727.3 817 726.9 813.9" stroke="#333333" stroke-width="2" stroke-linecap="round" stroke-linejoin="round" opacity="1" fill="none"></path><path d="M834.1 856.8C834.1 843.9 844.6 833.4 857.5 833.4Z" fill="#ffffff" opacity="1" stroke-width="2" stroke="none"></path><path d="M834.1 856.8C834.1 843.9 844.6 833.4 857.5 833.4" stroke="#333333" stroke-width="2" stroke-linecap="round" stroke-linejoin="round" opacity="1" fill="none"></path><path d="M719.3 849.8C698.7 849.8 681.4 865.4 679.2 885.9L666.5 1007.9H747.5L759.4 894.3C761.9 870.5 743.3 849.8 719.3 849.8Z" fill="#53555b" stroke="#333333" stroke-width="2" stroke-linecap="round" stroke-linejoin="round" opacity="1"></path><path d="M878 917.3C867.3 929.7 851.4 937.5 833.9 937.5 804.4 937.5 779.6 915.5 776.1 886.3L771.9 851.4C754.8 856.1 742.2 871.8 742.2 890.4V1008H823.2 870.6C894.6 1008 916 996.6 929.6 978.9L878 917.3Z" fill="#53555b" stroke="#333333" stroke-width="2" stroke-linecap="round" stroke-linejoin="round" opacity="1"></path><path d="M760.7 759.1C755 757.3 748.8 756.6 742.4 757.4 725.3 759.5 711.8 771.3 706.7 786.6L763.2 779.6 762.1 770.7 760.7 759.1Z" fill="#53555b" stroke="#333333" stroke-width="2" stroke-linecap="round" stroke-linejoin="round" opacity="1"></path><path d="M823.1 936.8V1007.4" stroke="#333333" stroke-width="2" stroke-linecap="round" stroke-linejoin="round" opacity="1" fill="none"></path><path d="M834.2 855.9L825.1 772.5" stroke="#333333" stroke-width="2" stroke-linecap="round" stroke-linejoin="round" opacity="1" fill="none"></path><path d="M878 917.3C885.2 909 890.1 898.5 891.7 886.9L894 869.5" stroke="#333333" stroke-width="2" stroke-linecap="round" stroke-linejoin="round" opacity="1" fill="none"></path><path d="M770.1 837.3L771.8 851.3" stroke="#333333" stroke-width="2" stroke-linecap="round" stroke-linejoin="round" opacity="1" fill="none"></path></g><g><path d="M330.59 747.32L298.01 753 309.3 817.75 341.88 812.06 330.59 747.32Z" fill="#ac282e" stroke="#333333" stroke-width="2" stroke-linecap="round" stroke-linejoin="round" opacity="1"></path><path d="M269.67 763.57L361.26 747.54C367.24 746.55 371.18 740.85 370.18 734.99L257.25 754.67C258.05 760.62 263.82 764.51 269.67 763.57Z" fill="#ac282e" stroke="#333333" stroke-width="2" stroke-linecap="round" stroke-linejoin="round" opacity="1"></path><path d="M185.13 834.2L464.63 785.49 469.4 813.15 464.31 824.96 197.73 871.16 189.89 861.93 185.13 834.2Z" fill="#ac282e" stroke="#333333" stroke-width="2" stroke-linecap="round" stroke-linejoin="round" opacity="1"></path><path d="M235.93 853.89L469.4 813.15 494.86 959.19 215.36 1007.9 189.89 861.93 197.81 860.48" fill="#b14749" opacity="1" stroke-width="2" stroke="none"></path><path d="M235.93 853.89L469.4 813.15 494.86 959.19 215.36 1007.9 189.89 861.93 197.81 860.48" stroke="#333333" stroke-width="2" stroke-linecap="round" stroke-linejoin="round" opacity="1" fill="none"></path><path d="M225.68 855.62L206.21 859.1" stroke="#333333" stroke-width="2" stroke-linecap="round" stroke-linejoin="round" opacity="1" fill="none"></path><path d="M382.56 927.45L359.87 911.82" stroke="#333333" stroke-width="2" stroke-linecap="round" stroke-linejoin="round" opacity="1" fill="none"></path><path d="M363.4 930.98L379.03 908.29" stroke="#333333" stroke-width="2" stroke-linecap="round" stroke-linejoin="round" opacity="1" fill="none"></path><path d="M333.6 936.3L310.91 920.68" stroke="#333333" stroke-width="2" stroke-linecap="round" stroke-linejoin="round" opacity="1" fill="none"></path><path d="M314.44 939.83L330.07 917.14" stroke="#333333" stroke-width="2" stroke-linecap="round" stroke-linejoin="round" opacity="1" fill="none"></path><path d="M372.15 869.99C373.43 876.95 368.79 883.55 361.96 884.84L318.86 892.7C311.9 893.98 305.31 889.34 304.01 882.5" stroke="#333333" stroke-width="2" stroke-linecap="round" stroke-linejoin="round" opacity="1" fill="none"></path></g><g><path d="M478.57 977.42H491.1L553.76 979.5 603.01 977.42V961.97H478.57V977.42Z" fill="#53555b" stroke="#333333" stroke-width="2" stroke-linecap="round" stroke-linejoin="round" opacity="1"></path><path d="M489.36 992.97L548.54 995.24 605.97 992.97H613.8V977.42H489.36V992.97Z" fill="#ac282e" stroke="#333333" stroke-width="2" stroke-linecap="round" stroke-linejoin="round" opacity="1"></path><path d="M499.11 1008.42H483.79V992.97H608.4V1008.42H515.47" fill="#b14749" opacity="1" stroke-width="2" stroke="none"></path><path d="M499.11 1008.42H483.79V992.97H608.4V1008.42H515.47" stroke="#333333" stroke-width="2" stroke-linecap="round" stroke-linejoin="round" opacity="1" fill="none"></path></g><g><path d="M985.07 669.5H408.83V703.94H985.07V669.5Z" fill="#c8b0af" stroke="#333333" stroke-width="2" stroke-linecap="round" stroke-linejoin="round" opacity="1"></path><path d="M941.38 703.94V1008.8" stroke="#333333" stroke-width="2" stroke-linecap="round" stroke-linejoin="round" opacity="1" fill="none"></path><path d="M452.14 703.94V1008.8" stroke="#333333" stroke-width="2" stroke-linecap="round" stroke-linejoin="round" opacity="1" fill="none"></path></g><g><path d="M1037.42 779.57L914.46 581.5 1100.87 465.78 1365.16 891.51 1178.75 1007.23 1055.19 808.19" fill="#ac282e" opacity="1" stroke-width="2" stroke="none"></path><path d="M1037.42 779.57L914.46 581.5 1100.87 465.78 1365.16 891.51 1178.75 1007.23 1055.19 808.19" stroke="#333333" stroke-width="2" stroke-linecap="round" stroke-linejoin="round" opacity="1" fill="none"></path><path d="M1090.53 657.13C1107.4 646.66 1112.58 624.5 1102.11 607.64 1091.64 590.77 1069.49 585.59 1052.62 596.06 1035.75 606.53 1030.57 628.68 1041.04 645.55 1051.51 662.41 1073.67 667.6 1090.53 657.13Z" fill="#b14749" stroke="#333333" stroke-width="2" stroke-linecap="round" stroke-linejoin="round" opacity="1"></path><path d="M1040.35 478.54L952.9 532.82 964.02 550.73 1051.47 496.44 1040.35 478.54Z" fill="#b14749" stroke="#333333" stroke-width="2" stroke-linecap="round" stroke-linejoin="round" opacity="1"></path><path d="M972.07 368.55L884.62 422.83 895.74 440.74 983.19 386.45 972.07 368.55Z" fill="#b14749" stroke="#333333" stroke-width="2" stroke-linecap="round" stroke-linejoin="round" opacity="1"></path><path d="M902.13 436.77C905.7 442.53 899.31 446.5 902.88 452.25 906.46 458.01 912.85 454.04 916.42 459.79 920 465.55 913.6 469.52 917.17 475.27 920.75 481.03 927.14 477.06 930.71 482.81 934.29 488.57 927.89 492.54 931.47 498.29 935.04 504.05 941.43 500.08 945.01 505.83 948.58 511.59 942.18 515.56 945.76 521.31 949.33 527.07 955.72 523.1 959.3 528.85" stroke="#333333" stroke-width="2" stroke-linecap="round" stroke-linejoin="round" opacity="1" fill="none"></path><path d="M976.79 390.42C980.36 396.18 986.76 392.21 990.33 397.96 993.9 403.72 987.51 407.69 991.08 413.44 994.66 419.2 1001.05 415.23 1004.62 420.98 1008.2 426.74 1001.8 430.71 1005.37 436.46 1008.95 442.22 1015.34 438.25 1018.91 444.01 1022.49 449.76 1016.09 453.73 1019.66 459.49 1023.24 465.24 1029.63 461.27 1033.21 467.03 1036.78 472.78 1030.38 476.75 1033.96 482.51" stroke="#333333" stroke-width="2" stroke-linecap="round" stroke-linejoin="round" opacity="1" fill="none"></path><path d="M957.29 402.53L921.64 424.66 978.8 516.75 1014.45 494.62 957.29 402.53Z" fill="#c8b0af" stroke="#333333" stroke-width="2" stroke-linecap="round" stroke-linejoin="round" opacity="1"></path><path d="M930.87 439.53L959.48 421.76" stroke="#333333" stroke-width="2" stroke-linecap="round" stroke-linejoin="round" opacity="1" fill="none"></path><path d="M940.59 455.2L950.98 448.75" stroke="#333333" stroke-width="2" stroke-linecap="round" stroke-linejoin="round" opacity="1" fill="none"></path><path d="M958.02 444.38L976.08 433.16" stroke="#333333" stroke-width="2" stroke-linecap="round" stroke-linejoin="round" opacity="1" fill="none"></path><path d="M950.22 470.7L974.04 455.92" stroke="#333333" stroke-width="2" stroke-linecap="round" stroke-linejoin="round" opacity="1" fill="none"></path><path d="M959.85 486.21L995.34 464.18" stroke="#333333" stroke-width="2" stroke-linecap="round" stroke-linejoin="round" opacity="1" fill="none"></path><path d="M980.76 494.93L998.19 484.11" stroke="#333333" stroke-width="2" stroke-linecap="round" stroke-linejoin="round" opacity="1" fill="none"></path></g><g><path d="M1141.67 877.12L1074.44 989.4" stroke="#333333" stroke-width="2" stroke-linecap="round" stroke-linejoin="round" opacity="1" fill="none"></path><path d="M1157.29 851L1146.72 868.62" stroke="#333333" stroke-width="2" stroke-linecap="round" stroke-linejoin="round" opacity="1" fill="none"></path><path d="M1103.88 824.67L1205.73 885.62C1213.33 890.18 1223.14 887.69 1227.63 880.16 1232.19 872.56 1229.71 862.74 1222.17 858.25L1120.32 797.31C1112.72 792.75 1102.91 795.23 1098.42 802.77 1093.86 810.37 1096.34 820.18 1103.88 824.67Z" fill="#b14749" stroke="#333333" stroke-width="2" stroke-linecap="round" stroke-linejoin="round" opacity="1"></path><path d="M1143.06 915.54C1143.12 915.47 1143.06 915.4 1143.06 915.4L1107.26 893.98C1107.19 893.91 1107.12 893.98 1107.12 893.98L1101.6 903.24C1101.53 903.31 1101.6 903.37 1101.6 903.37L1137.39 924.8C1137.46 924.86 1137.53 924.8 1137.53 924.8L1143.06 915.54Z" fill="#b14749" stroke="#333333" stroke-width="2" stroke-linecap="round" stroke-linejoin="round" opacity="1"></path><path d="M1137.53 924.93L1102.36 1006.12" stroke="#333333" stroke-width="2" stroke-linecap="round" stroke-linejoin="round" opacity="1" fill="none"></path><path d="M1101.6 903.37L1046.52 972.68" stroke="#333333" stroke-width="2" stroke-linecap="round" stroke-linejoin="round" opacity="1" fill="none"></path></g><g><path d="M532.25 669.52H447.48C442.16 669.52 437.85 665.21 437.85 659.88V625.66C437.85 620.34 442.16 616.03 447.48 616.03H457.45 532.25C537.57 616.03 541.88 620.34 541.88 625.66V659.88C541.99 665.21 537.57 669.52 532.25 669.52Z" fill="#53555b" stroke="#333333" stroke-width="2" stroke-linecap="round" stroke-linejoin="round" opacity="1"></path><path d="M457 669.52V616.03H447.37C442.16 616.03 437.85 620.22 437.85 625.55V660C437.85 665.21 442.04 669.52 447.37 669.52H457Z" fill="#b14749" stroke="#333333" stroke-width="2" stroke-linecap="round" stroke-linejoin="round" opacity="1"></path><path d="M522.84 669.52V616.03H532.47C537.68 616.03 541.99 620.22 541.99 625.55V660C541.99 665.21 537.8 669.52 532.47 669.52H522.84Z" fill="#b14749" stroke="#333333" stroke-width="2" stroke-linecap="round" stroke-linejoin="round" opacity="1"></path><path d="M485.67 622.83H494.17" stroke="#333333" stroke-width="2" stroke-linecap="round" stroke-linejoin="round" opacity="1" fill="none"></path></g></svg>