<svg xmlns="http://www.w3.org/2000/svg" height="1000" width="1000" version="1.1" xmlns:xlink="http://www.w3.org/1999/xlink" xmlns:svgjs="http://svgjs.com/svgjs"><rect fill="#b14749" width="1000" height="1000"></rect><g><path d="M703.04 547.47C760.24 445.45 763.84 343.42 712.32 290.86 595.86 183.17 500.02 322.29 500.02 322.29 500.02 322.29 404.18 183.17 287.72 290.86 199.61 382.07 272.27 614.46 500.02 749.98 575.25 705.15 633.99 650.53 674.7 592.82" fill="#f5f7f8" opacity="1" stroke-width="2" stroke="none"></path><path d="M703.04 547.47C760.24 445.45 763.84 343.42 712.32 290.86 595.86 183.17 500.02 322.29 500.02 322.29 500.02 322.29 404.18 183.17 287.72 290.86 199.61 382.07 272.27 614.46 500.02 749.98 575.25 705.15 633.99 650.53 674.7 592.82" stroke="#333333" stroke-width="2" stroke-linecap="round" stroke-linejoin="round" opacity="1" fill="none"></path><path d="M597.92 466.06H533V401.13H466.53V466.06H401.6V532.53H466.53V597.45H533V532.53H597.92V466.06Z" fill="#b14749" stroke="#333333" stroke-width="2" stroke-linecap="round" stroke-linejoin="round" opacity="1"></path></g></svg>