<svg xmlns="http://www.w3.org/2000/svg" height="1200" width="1600" version="1.1" xmlns:xlink="http://www.w3.org/1999/xlink" xmlns:svgjs="http://svgjs.com/svgjs"><rect fill="#f5f7f8" width="1600" height="1200"></rect><g><path d="M1102.58 759.24H1140.88C1182.64 759.24 1216.4 725.48 1216.4 683.73 1216.4 641.98 1182.64 608.22 1140.88 608.22L263.54 608.22" stroke="#343a40" stroke-width="2" stroke-linecap="round" stroke-linejoin="round" opacity="1" fill="none"></path></g><g><path d="M429.38 608.2L445.48 535.4" stroke="#343a40" stroke-width="2" stroke-linecap="round" stroke-linejoin="round" opacity="1" fill="none"></path><path d="M454.28 529.79L445.48 535.4 439.87 526.6" stroke="#343a40" stroke-width="2" stroke-linecap="round" stroke-linejoin="round" opacity="1" fill="none"></path><path d="M451.82 540.91L443.02 546.52 437.41 537.72" stroke="#343a40" stroke-width="2" stroke-linecap="round" stroke-linejoin="round" opacity="1" fill="none"></path><path d="M467.89 521.55C471.19 527.04 472.49 533.82 471 540.57 467.9 554.59 454.03 563.48 439.96 560.37 425.89 557.26 417.05 543.4 420.16 529.33 423.27 515.25 437.13 506.41 451.2 509.53 455.85 510.56 459.89 512.76 463.16 515.74" fill="#b14749" opacity="1" stroke-width="2" stroke="none"></path><path d="M467.89 521.55C471.19 527.04 472.49 533.82 471 540.57 467.9 554.59 454.03 563.48 439.96 560.37 425.89 557.26 417.05 543.4 420.16 529.33 423.27 515.25 437.13 506.41 451.2 509.53 455.85 510.56 459.89 512.76 463.16 515.74" stroke="#343a40" stroke-width="2" stroke-linecap="round" stroke-linejoin="round" opacity="1" fill="none"></path></g><g><path d="M386.18 492.57L311.73 418.44 312.38 523.57 335.77 513.74 336.2 580.3 410 549.3 362.95 502.33 386.18 492.57Z" fill="#b14749" stroke="#343a40" stroke-width="2" stroke-linecap="round" stroke-linejoin="round" opacity="1"></path><path d="M356.66 525.42L353.54 517.99" stroke="#343a40" stroke-width="2" stroke-linecap="round" stroke-linejoin="round" opacity="1" fill="none"></path><path d="M431.58 703.83L361.57 537.11" stroke="#343a40" stroke-width="2" stroke-linecap="round" stroke-linejoin="round" opacity="1" fill="none"></path></g><g><path d="M584.2 417.9C584.1 417.9 584.1 417.9 584.2 417.9L559.7 427.1 559.6 427.2V475.5L540.9 521.1V521.2C540.9 521.2 540.9 521.2 541 521.3L563.5 530.5C563.6 530.5 563.6 530.5 563.6 530.4L583.9 481.4 584 481.3 584.1 481.4V530.3C584.1 530.4 584.1 530.4 584.2 530.4H608.5C608.6 530.4 608.6 530.4 608.6 530.3V427.2C608.6 427.2 608.6 427.1 608.5 427.1L584.2 417.9Z" fill="#343a40" stroke="#343a40" stroke-width="2" stroke-linecap="round" stroke-linejoin="round" opacity="1"></path><path d="M645.2 319.9C645.1 319.9 645.1 319.9 645.1 319.9L629.2 350C629.2 350 629.2 350 629.1 350L607.8 358.5H572.6C563.6 358.5 555.4 363.8 551.7 372L548.2 379.9C544.5 388.1 544.2 397.3 547.2 405.8L554.9 427.1 555 427.2H559.7 608.7 608.8C608.8 427.2 608.8 427.2 608.8 427.1V384.4C608.8 384.4 608.8 384.3 608.9 384.3L627.6 374.7C636.5 370.1 643.9 363 648.7 354.1L661.8 329.9V329.8L645.2 319.9Z" fill="#f5f7f8" stroke="#343a40" stroke-width="2" stroke-linecap="round" stroke-linejoin="round" opacity="1"></path><path d="M606.6 351.6C606.1 351.2 595.3 342.5 583.9 350 581.5 351.6 576.4 356.7 578.4 364.9 580.9 370.5 586.5 374.3 593 374.2 599.9 374 605.7 369.4 607.6 363.1 608.1 361.6 608.3 359.9 608.3 358.2 608.2 355.8 607.6 353.6 606.6 351.6Z" fill="#f5f7f8" stroke="#343a40" stroke-width="2" stroke-linecap="round" stroke-linejoin="round" opacity="1"></path><path d="M600.7 357.9L600.8 362.3" stroke="#343a40" stroke-width="2" stroke-linecap="round" stroke-linejoin="round" opacity="1" fill="none"></path><path d="M596.6 362.4C596.6 363.6 597.6 364.5 598.7 364.4 599.9 364.4 600.8 363.4 600.7 362.3" stroke="#343a40" stroke-width="2" stroke-linecap="round" stroke-linejoin="round" opacity="1" fill="none"></path><path d="M592.3 343C586.1 343.1 580.8 346.9 578.4 352.2 577.5 354.3 577 356.5 577 358.9 577 360.6 577.3 362.2 577.9 363.7 578 364.1 578.2 364.4 578.3 364.8L578.4 364.9C582.2 364.8 585.1 361.6 585.1 357.9L585 352.2V352.1C585 352.1 585 352.1 585.1 352.1L606.4 351.6H606.5V351.5C603.8 346.3 598.4 342.8 592.3 343Z" fill="#343a40" stroke="#343a40" stroke-width="2" stroke-linecap="round" stroke-linejoin="round" opacity="1"></path><path d="M584.1 458.2V451.7" stroke="#343a40" stroke-width="2" stroke-linecap="round" stroke-linejoin="round" opacity="1" fill="none"></path><path d="M584.1 481.1V463.5" stroke="#343a40" stroke-width="2" stroke-linecap="round" stroke-linejoin="round" opacity="1" fill="none"></path><path d="M571 385.7C571 389.6 567.9 392.7 564 392.7L575.8 427.2" stroke="#343a40" stroke-width="2" stroke-linecap="round" stroke-linejoin="round" opacity="1" fill="none"></path></g><g><path d="M825.66 726.97V637.59H697.25V812.1H825.66V760.34" fill="#c8b0af" opacity="1" stroke-width="2" stroke="none"></path><path d="M825.66 726.97V637.59H697.25V812.1H825.66V760.34" stroke="#343a40" stroke-width="2" stroke-linecap="round" stroke-linejoin="round" opacity="1" fill="none"></path><path d="M578.75 573.39H442.14V812.1H578.75V573.39Z" fill="#c8b0af" stroke="#343a40" stroke-width="2" stroke-linecap="round" stroke-linejoin="round" opacity="1"></path><path d="M729.78 406.8H538.02V811.82H729.78V406.8Z" fill="#c8b0af" stroke="#343a40" stroke-width="2" stroke-linecap="round" stroke-linejoin="round" opacity="1"></path><path d="M665.01 701.23H603.07V812.1H665.01V701.23Z" fill="#f5f7f8" stroke="#343a40" stroke-width="2" stroke-linecap="round" stroke-linejoin="round" opacity="1"></path><path d="M575.92 449.79H618.34" stroke="#343a40" stroke-width="2" stroke-linecap="round" stroke-linejoin="round" opacity="1" fill="none"></path><path d="M649.46 449.79H691.6" stroke="#343a40" stroke-width="2" stroke-linecap="round" stroke-linejoin="round" opacity="1" fill="none"></path><path d="M575.92 489.95H618.34" stroke="#343a40" stroke-width="2" stroke-linecap="round" stroke-linejoin="round" opacity="1" fill="none"></path><path d="M649.46 489.95H691.6" stroke="#343a40" stroke-width="2" stroke-linecap="round" stroke-linejoin="round" opacity="1" fill="none"></path><path d="M575.92 530.4H618.34" stroke="#343a40" stroke-width="2" stroke-linecap="round" stroke-linejoin="round" opacity="1" fill="none"></path><path d="M649.46 530.4H691.6" stroke="#343a40" stroke-width="2" stroke-linecap="round" stroke-linejoin="round" opacity="1" fill="none"></path><path d="M575.92 570.56H618.34" stroke="#343a40" stroke-width="2" stroke-linecap="round" stroke-linejoin="round" opacity="1" fill="none"></path><path d="M469.01 608.18H511.15" stroke="#343a40" stroke-width="2" stroke-linecap="round" stroke-linejoin="round" opacity="1" fill="none"></path><path d="M469.01 648.62H511.15" stroke="#343a40" stroke-width="2" stroke-linecap="round" stroke-linejoin="round" opacity="1" fill="none"></path><path d="M756.37 669.84H798.79" stroke="#343a40" stroke-width="2" stroke-linecap="round" stroke-linejoin="round" opacity="1" fill="none"></path><path d="M756.37 710H798.79" stroke="#343a40" stroke-width="2" stroke-linecap="round" stroke-linejoin="round" opacity="1" fill="none"></path><path d="M649.46 570.56H691.6" stroke="#343a40" stroke-width="2" stroke-linecap="round" stroke-linejoin="round" opacity="1" fill="none"></path></g><g><path d="M1316.81 256.57L1328.6 426.08 1250.03 412.89 1316.81 256.57Z" fill="#b14749" stroke="#343a40" stroke-width="2" stroke-linecap="round" stroke-linejoin="round" opacity="1"></path><path d="M1239.09 719.47L1296.39 378.16" stroke="#343a40" stroke-width="2" stroke-linecap="round" stroke-linejoin="round" opacity="1" fill="none"></path></g><g><path d="M1291.04 564.51C1291.16 564.59 1291.16 564.59 1291.18 564.69L1215.75 673.1 1215.65 673.11 1107.25 597.69 1107.23 597.59 1107.31 597.48 1158.77 588.24C1158.87 588.22 1158.87 588.22 1158.85 588.13L1130.16 428.19C1130.14 428.09 1130.14 428.09 1130.24 428.08L1210.85 413.61C1210.95 413.59 1210.95 413.59 1210.97 413.69L1239.66 573.63C1239.68 573.73 1239.68 573.73 1239.78 573.71L1291.04 564.51Z" fill="#c8b0af" stroke="#343a40" stroke-width="2" stroke-linecap="round" stroke-linejoin="round" opacity="1"></path></g><g><path d="M606.6 820C606.6 820 606.5 819.9 606.6 820L565.3 819.9C542 819.9 523.1 801 523.1 777.7 523.1 754.4 542 735.5 565.3 735.5H793.2C842 735.5 890 722.7 932.4 698.3L1004.4 656.9C1046.7 632.5 1094.7 619.7 1143.6 619.7 1215 619.7 1283.7 647 1335.5 696.1L1377.1 735.5C1427.6 786.1 1391.8 872.5 1320.4 872.5H660.5C631.2 872.6 607.3 849.3 606.6 820Z" fill="#ac282e" stroke="#343a40" stroke-width="2" stroke-linecap="round" stroke-linejoin="round" opacity="1"></path></g><g><path d="M1155.49 841.02L1146.22 843.22C1144.6 843.6 1142.98 842.6 1142.6 840.98L1125.73 769.92C1125.35 768.3 1126.35 766.68 1127.97 766.29L1250.66 737.17C1252.28 736.79 1253.9 737.79 1254.29 739.41L1271.15 810.44C1271.53 812.06 1270.53 813.68 1268.91 814.07L1160.1 839.89" fill="#c8b0af" opacity="1" stroke-width="2" stroke="none"></path><path d="M1155.49 841.02L1146.22 843.22C1144.6 843.6 1142.98 842.6 1142.6 840.98L1125.73 769.92C1125.35 768.3 1126.35 766.68 1127.97 766.29L1250.66 737.17C1252.28 736.79 1253.9 737.79 1254.29 739.41L1271.15 810.44C1271.53 812.06 1270.53 813.68 1268.91 814.07L1160.1 839.89" stroke="#343a40" stroke-width="2" stroke-linecap="round" stroke-linejoin="round" opacity="1" fill="none"></path><path d="M1227.51 751.3C1227.5 751.26 1227.5 751.26 1227.51 751.3L1244.63 747.2C1244.67 747.19 1244.67 747.19 1244.68 747.22L1259.06 807.85C1259.07 807.88 1259.07 807.88 1259.04 807.89L1241.94 811.95C1241.91 811.96 1241.91 811.96 1241.9 811.92L1227.51 751.3Z" fill="#ac282e" stroke="#343a40" stroke-width="2" stroke-linecap="round" stroke-linejoin="round" opacity="1"></path><path d="M1264.48 806.6L1260.57 790.12" stroke="#343a40" stroke-width="2" stroke-linecap="round" stroke-linejoin="round" opacity="1" fill="none"></path><path d="M1135.35 773.17C1135.34 773.13 1135.34 773.13 1135.38 773.12L1183.25 761.76C1183.28 761.76 1183.28 761.76 1183.29 761.79L1191.41 795.98C1191.41 796.01 1191.41 796.01 1191.38 796.02L1143.51 807.38C1143.47 807.39 1143.47 807.39 1143.46 807.36L1135.35 773.17Z" fill="#f5f7f8" stroke="#343a40" stroke-width="2" stroke-linecap="round" stroke-linejoin="round" opacity="1"></path><path d="M1171.29 764.6L1179.41 798.83" stroke="#343a40" stroke-width="2" stroke-linecap="round" stroke-linejoin="round" opacity="1" fill="none"></path><path d="M1159.3 767.45L1167.42 801.67" stroke="#343a40" stroke-width="2" stroke-linecap="round" stroke-linejoin="round" opacity="1" fill="none"></path><path d="M1147.3 770.29L1155.42 804.52" stroke="#343a40" stroke-width="2" stroke-linecap="round" stroke-linejoin="round" opacity="1" fill="none"></path><path d="M1149.93 781.36L1137.97 784.2" stroke="#343a40" stroke-width="2" stroke-linecap="round" stroke-linejoin="round" opacity="1" fill="none"></path><path d="M1164.37 777.93L1160.41 778.87 1152.72 780.7" stroke="#343a40" stroke-width="2" stroke-linecap="round" stroke-linejoin="round" opacity="1" fill="none"></path><path d="M1185.88 772.83L1167.33 777.23" stroke="#343a40" stroke-width="2" stroke-linecap="round" stroke-linejoin="round" opacity="1" fill="none"></path><path d="M1188.75 784.92L1140.84 796.29" stroke="#343a40" stroke-width="2" stroke-linecap="round" stroke-linejoin="round" opacity="1" fill="none"></path><path d="M1188.09 802.26C1188.08 802.23 1188.08 802.23 1188.12 802.22L1192.6 801.16C1192.63 801.15 1192.63 801.15 1192.64 801.18L1197.67 822.38C1197.68 822.41 1197.68 822.41 1197.65 822.42L1193.16 823.49C1193.13 823.49 1193.13 823.49 1193.12 823.46L1188.09 802.26Z" fill="#f5f7f8" stroke="#343a40" stroke-width="2" stroke-linecap="round" stroke-linejoin="round" opacity="1"></path><path d="M1156.66 809.72C1156.65 809.69 1156.65 809.69 1156.69 809.68L1168.61 806.85C1168.65 806.84 1168.65 806.84 1168.65 806.88L1173.68 828.07C1173.69 828.11 1173.69 828.11 1173.66 828.12L1161.73 830.95C1161.7 830.95 1161.7 830.95 1161.69 830.92L1156.66 809.72Z" fill="#343a40" stroke="#343a40" stroke-width="2" stroke-linecap="round" stroke-linejoin="round" opacity="1"></path><path d="M1144.7 812.56C1144.69 812.53 1144.69 812.53 1144.73 812.52L1156.65 809.69C1156.69 809.68 1156.69 809.68 1156.69 809.71L1159.2 820.3C1159.21 820.33 1159.21 820.33 1159.18 820.34L1147.25 823.17C1147.22 823.18 1147.22 823.18 1147.21 823.14L1144.7 812.56Z" fill="#f5f7f8" stroke="#343a40" stroke-width="2" stroke-linecap="round" stroke-linejoin="round" opacity="1"></path><path d="M1147.23 823.21C1147.22 823.18 1147.22 823.18 1147.25 823.17L1159.18 820.34C1159.21 820.33 1159.21 820.33 1159.22 820.36L1161.73 830.95C1161.74 830.98 1161.74 830.98 1161.71 830.99L1149.78 833.82C1149.75 833.83 1149.75 833.83 1149.74 833.79L1147.23 823.21Z" fill="#f5f7f8" stroke="#343a40" stroke-width="2" stroke-linecap="round" stroke-linejoin="round" opacity="1"></path><path d="M1227.88 815.28C1230.35 814.7 1231.88 812.22 1231.3 809.74 1230.71 807.27 1228.23 805.74 1225.75 806.32 1223.28 806.91 1221.75 809.39 1222.34 811.87 1222.92 814.34 1225.4 815.87 1227.88 815.28Z" fill="#b14749" stroke="#343a40" stroke-width="2" stroke-linecap="round" stroke-linejoin="round" opacity="1"></path><path d="M1213.09 818.79C1215.57 818.21 1217.1 815.72 1216.51 813.25 1215.92 810.77 1213.44 809.25 1210.97 809.83 1208.49 810.42 1206.96 812.9 1207.55 815.38 1208.14 817.85 1210.62 819.38 1213.09 818.79Z" fill="#b14749" stroke="#343a40" stroke-width="2" stroke-linecap="round" stroke-linejoin="round" opacity="1"></path><path d="M1224.81 802.36C1227.29 801.77 1228.82 799.29 1228.23 796.82 1227.64 794.34 1225.16 792.81 1222.69 793.4 1220.21 793.99 1218.68 796.47 1219.27 798.94 1219.86 801.42 1222.34 802.95 1224.81 802.36Z" fill="#b14749" stroke="#343a40" stroke-width="2" stroke-linecap="round" stroke-linejoin="round" opacity="1"></path><path d="M1210.03 805.87C1212.5 805.28 1214.03 802.8 1213.44 800.32 1212.86 797.85 1210.37 796.32 1207.9 796.91 1205.43 797.49 1203.9 799.98 1204.48 802.45 1205.07 804.93 1207.55 806.46 1210.03 805.87Z" fill="#b14749" stroke="#343a40" stroke-width="2" stroke-linecap="round" stroke-linejoin="round" opacity="1"></path><path d="M1221.74 789.4C1224.21 788.81 1225.74 786.33 1225.15 783.86 1224.57 781.38 1222.09 779.85 1219.61 780.44 1217.14 781.03 1215.61 783.51 1216.19 785.98 1216.78 788.46 1219.26 789.99 1221.74 789.4Z" fill="#b14749" stroke="#343a40" stroke-width="2" stroke-linecap="round" stroke-linejoin="round" opacity="1"></path><path d="M1206.95 792.91C1209.43 792.32 1210.96 789.84 1210.37 787.37 1209.78 784.89 1207.3 783.36 1204.82 783.95 1202.35 784.54 1200.82 787.02 1201.41 789.49 1201.99 791.97 1204.48 793.5 1206.95 792.91Z" fill="#b14749" stroke="#343a40" stroke-width="2" stroke-linecap="round" stroke-linejoin="round" opacity="1"></path><path d="M1218.67 776.48C1221.14 775.89 1222.67 773.41 1222.09 770.93 1221.5 768.46 1219.02 766.93 1216.54 767.52 1214.07 768.1 1212.54 770.58 1213.13 773.06 1213.71 775.53 1216.2 777.06 1218.67 776.48Z" fill="#b14749" stroke="#343a40" stroke-width="2" stroke-linecap="round" stroke-linejoin="round" opacity="1"></path><path d="M1203.88 779.99C1206.36 779.4 1207.89 776.92 1207.3 774.44 1206.71 771.97 1204.23 770.44 1201.76 771.02 1199.28 771.61 1197.75 774.09 1198.34 776.57 1198.93 779.04 1201.41 780.57 1203.88 779.99Z" fill="#b14749" stroke="#343a40" stroke-width="2" stroke-linecap="round" stroke-linejoin="round" opacity="1"></path><path d="M1215.59 763.52C1218.07 762.93 1219.6 760.45 1219.01 757.97 1218.42 755.5 1215.94 753.97 1213.47 754.56 1210.99 755.14 1209.46 757.63 1210.05 760.1 1210.64 762.57 1213.12 764.1 1215.59 763.52Z" fill="#f5f7f8" stroke="#343a40" stroke-width="2" stroke-linecap="round" stroke-linejoin="round" opacity="1"></path><path d="M1200.81 767.03C1203.28 766.44 1204.81 763.96 1204.23 761.48 1203.64 759.01 1201.16 757.48 1198.68 758.07 1196.21 758.65 1194.68 761.13 1195.27 763.61 1195.85 766.08 1198.33 767.61 1200.81 767.03Z" fill="#f5f7f8" stroke="#343a40" stroke-width="2" stroke-linecap="round" stroke-linejoin="round" opacity="1"></path></g><g><path d="M983.23 817.95C983.23 817.95 983.38 817.95 983.23 817.95L995.72 836.68V836.83L991.36 843.65C975.25 873.12 944.62 891.7 911.08 892.57L814.4 895.04C814.4 895.04 814.25 895.04 814.25 895.19L771.86 1020.33 771.71 1020.47 698.4 1004.94C698.4 1004.94 698.26 1004.94 698.26 1004.79V1004.65L749.36 872.54C758.5 848.88 780.13 832.18 805.39 829.28L817.59 827.97C817.59 827.97 817.73 827.97 817.73 827.83 817.73 827.68 817.73 827.68 817.73 827.68L758.07 778.76C758.07 778.76 758.07 778.76 757.92 778.76L635.25 763.08C635.11 763.08 635.11 762.93 635.11 762.93L642.07 698.62C642.07 698.48 642.22 698.48 642.22 698.48L734.4 708.2C767.94 711.69 799.88 724.17 827.03 744.21L884.66 786.89 983.23 817.95Z" fill="#343a40" stroke="#343a40" stroke-width="2" stroke-linecap="round" stroke-linejoin="round" opacity="1"></path><path d="M861.29 619.5L877.98 659.57C884.51 675.1 895.98 688.17 910.79 696.44L924 703.99C924 703.99 924.15 704.14 924 704.14L884.37 786.74V786.89C884.37 786.89 884.37 786.89 884.51 787.03L995.57 836.83H995.72L1043.77 735.79C1043.77 735.79 1043.77 735.79 1043.92 735.64L1081.52 724.03C1103.58 717.2 1122.89 703.12 1136.1 684.1L1176.89 625.45V625.31L1138.42 593.66H1138.28 1138.13L1089.79 669.88C1089.79 669.88 1089.79 669.88 1089.64 669.88L1026.06 685.85C1026.06 685.85 1026.06 685.85 1025.91 685.85L930.68 648.25C930.68 648.25 930.68 648.25 930.53 648.1L890.76 549.67C890.76 549.67 890.76 549.67 890.61 549.53H890.47L840.82 570.29C840.82 570.29 840.82 570.29 840.67 570.43V570.58L855.48 606" fill="#f5f7f8" opacity="1" stroke-width="2" stroke="none"></path><path d="M861.29 619.5L877.98 659.57C884.51 675.1 895.98 688.17 910.79 696.44L924 703.99C924 703.99 924.15 704.14 924 704.14L884.37 786.74V786.89C884.37 786.89 884.37 786.89 884.51 787.03L995.57 836.83H995.72L1043.77 735.79C1043.77 735.79 1043.77 735.79 1043.92 735.64L1081.52 724.03C1103.58 717.2 1122.89 703.12 1136.1 684.1L1176.89 625.45V625.31L1138.42 593.66H1138.28 1138.13L1089.79 669.88C1089.79 669.88 1089.79 669.88 1089.64 669.88L1026.06 685.85C1026.06 685.85 1026.06 685.85 1025.91 685.85L930.68 648.25C930.68 648.25 930.68 648.25 930.53 648.1L890.76 549.67C890.76 549.67 890.76 549.67 890.61 549.53H890.47L840.82 570.29C840.82 570.29 840.82 570.29 840.67 570.43V570.58L855.48 606" stroke="#343a40" stroke-width="2" stroke-linecap="round" stroke-linejoin="round" opacity="1" fill="none"></path><path d="M974.38 651.15C975.39 650.57 1000.22 636.49 1020.54 655.5 1024.9 659.57 1033.32 671.62 1026.64 687.3 1019.82 697.75 1007.19 703.56 994.12 701.09 980.18 698.48 970.17 687.15 968.57 673.94 968.13 670.75 968.28 667.41 968.86 663.93 969.73 659.13 971.62 654.78 974.38 651.15Z" fill="#f5f7f8" stroke="#343a40" stroke-width="2" stroke-linecap="round" stroke-linejoin="round" opacity="1"></path><path d="M984.1 665.81L982.36 674.67" stroke="#343a40" stroke-width="2" stroke-linecap="round" stroke-linejoin="round" opacity="1" fill="none"></path><path d="M990.78 676.26C990.35 678.59 988.17 680.04 985.85 679.6 983.52 679.17 982.07 676.99 982.51 674.67" stroke="#343a40" stroke-width="2" stroke-linecap="round" stroke-linejoin="round" opacity="1" fill="none"></path><path d="M1005.88 638.66C1018.36 640.99 1027.66 650.28 1030.7 661.75 1031.87 666.25 1032.16 670.89 1031.14 675.83 1030.56 679.17 1029.4 682.36 1027.8 685.27 1027.37 685.99 1026.93 686.72 1026.49 687.3 1026.49 687.3 1026.35 687.44 1026.35 687.3 1018.8 685.85 1013.86 678.44 1015.32 670.89L1017.49 659.42C1017.49 659.28 1017.49 659.28 1017.35 659.28L974.38 651.15C974.38 651.15 974.23 651.15 974.23 651V650.86C981.49 641.42 993.54 636.34 1005.88 638.66Z" fill="#343a40" stroke="#343a40" stroke-width="2" stroke-linecap="round" stroke-linejoin="round" opacity="1"></path><path d="M871.3 827.54H890.03" stroke="#343a40" stroke-width="2" stroke-linecap="round" stroke-linejoin="round" opacity="1" fill="none"></path><path d="M817.73 827.83L858.67 827.68" stroke="#343a40" stroke-width="2" stroke-linecap="round" stroke-linejoin="round" opacity="1" fill="none"></path></g><g><path d="M1254.1 877.9H1345.1C1362.7 877.9 1376.9 863.6 1376.9 846.1 1376.9 828.6 1362.6 814.3 1345.1 814.3H784.7C739.4 814.3 696 795.8 664.7 763L627.2 723.7C595.9 690.9 552.5 672.4 507.2 672.4 470.3 672.4 434.5 684.7 405.3 707.4L397.6 713.4C368.5 736.1 332.6 748.4 295.7 748.4H246 245.1C208.9 748.4 179.5 777.8 179.5 814 179.5 850.2 208.9 879.6 245.1 879.6H280.4" fill="#b14749" opacity="1" stroke-width="2" stroke="none"></path><path d="M1254.1 877.9H1345.1C1362.7 877.9 1376.9 863.6 1376.9 846.1 1376.9 828.6 1362.6 814.3 1345.1 814.3H784.7C739.4 814.3 696 795.8 664.7 763L627.2 723.7C595.9 690.9 552.5 672.4 507.2 672.4 470.3 672.4 434.5 684.7 405.3 707.4L397.6 713.4C368.5 736.1 332.6 748.4 295.7 748.4H246 245.1C208.9 748.4 179.5 777.8 179.5 814 179.5 850.2 208.9 879.6 245.1 879.6H280.4" stroke="#343a40" stroke-width="2" stroke-linecap="round" stroke-linejoin="round" opacity="1" fill="none"></path><path d="M414 747C421.9 741.7 429.6 736.4 437.8 731.5" stroke="#343a40" stroke-width="2" stroke-linecap="round" stroke-linejoin="round" opacity="1" fill="none"></path><path d="M246 785.7H295.8C332.7 785.7 368.5 775.8 397.7 757.5" stroke="#343a40" stroke-width="2" stroke-linecap="round" stroke-linejoin="round" opacity="1" fill="none"></path></g><g><path d="M451.17 915.31C450.36 918.97 452.63 922.55 456.29 923.37 459.95 924.19 463.53 921.91 464.35 918.25L478.2 856.12C486 855.12 492.55 849.33 494.35 841.28 496.14 833.22 492.64 825.31 486.03 820.98L482.04 838.87 474.46 843.32 468.97 835.95 472.95 818.07C465.15 819.07 458.6 824.86 456.8 832.91 455.03 840.86 458.51 848.88 465.12 853.21L452.72 908.85" fill="#c8b0af" opacity="1" stroke-width="2" stroke="none"></path><path d="M451.17 915.31C450.36 918.97 452.63 922.55 456.29 923.37 459.95 924.19 463.53 921.91 464.35 918.25L478.2 856.12C486 855.12 492.55 849.33 494.35 841.28 496.14 833.22 492.64 825.31 486.03 820.98L482.04 838.87 474.46 843.32 468.97 835.95 472.95 818.07C465.15 819.07 458.6 824.86 456.8 832.91 455.03 840.86 458.51 848.88 465.12 853.21L452.72 908.85" stroke="#343a40" stroke-width="2" stroke-linecap="round" stroke-linejoin="round" opacity="1" fill="none"></path></g><g><path d="M418.41 817.09L418.29 816.52C415.88 808.81 399.11 805.97 380.23 810.03 361.35 814.09 347.4 823.67 348.2 831.58 348.2 831.58 348.23 831.72 348.29 832.01L348.32 832.15 348.35 832.29C350.72 843.31 377.45 967.75 377.45 967.75L447.54 952.7 418.41 817.09Z" fill="#c8b0af" stroke="#343a40" stroke-width="2" stroke-linecap="round" stroke-linejoin="round" opacity="1"></path><path d="M387.51 829.27C386.51 829.48 385.65 829.67 384.65 829.88 374.78 832 366.24 831.29 365.63 828.43 365.01 825.57 372.5 821.42 382.37 819.3 389.52 817.76 395.95 817.73 399.21 818.97" stroke="#343a40" stroke-width="2" stroke-linecap="round" stroke-linejoin="round" opacity="1" fill="none"></path><path d="M372.43 858.69L376.39 877.15" stroke="#343a40" stroke-width="2" stroke-linecap="round" stroke-linejoin="round" opacity="1" fill="none"></path><path d="M378.82 888.45L386.07 922.21" stroke="#343a40" stroke-width="2" stroke-linecap="round" stroke-linejoin="round" opacity="1" fill="none"></path><path d="M418.41 817.09C420.13 825.1 405.81 835.06 386.5 839.21 367.19 843.36 350.04 840.16 348.32 832.15" stroke="#343a40" stroke-width="2" stroke-linecap="round" stroke-linejoin="round" opacity="1" fill="none"></path></g><g><path d="M549.1 348.87C568.53 348.87 584.28 333.13 584.28 313.7 584.28 294.27 568.53 278.52 549.1 278.52 529.67 278.52 513.92 294.27 513.92 313.7 513.92 333.13 529.67 348.87 549.1 348.87Z" fill="#b14749" stroke="#343a40" stroke-width="2" stroke-linecap="round" stroke-linejoin="round" opacity="1"></path><path d="M549.19 299.33C549.1 299.33 549.1 299.33 549.19 299.33 549.1 299.33 549.1 299.33 549.01 299.33 548.22 300.48 540.64 311.41 540.64 319.87 540.64 328.6 548.75 328.16 549.01 328.07 549.28 328.07 557.39 328.6 557.39 319.87 557.48 311.5 549.98 300.56 549.19 299.33Z" fill="#f5f7f8" stroke="#343a40" stroke-width="2" stroke-linecap="round" stroke-linejoin="round" opacity="1"></path></g><g><path d="M850.44 343.68C850.4 343.68 850.4 343.68 850.44 343.68 850.4 343.68 850.35 343.68 850.35 343.68 849.09 345.8 818.86 396.15 818.86 429.14 818.86 462.85 844.56 463.09 850.4 463.09 856.23 463.09 881.94 462.85 881.94 429.14 881.94 396.15 851.7 345.8 850.44 343.68Z" fill="#ac282e" stroke="#343a40" stroke-width="2" stroke-linecap="round" stroke-linejoin="round" opacity="1"></path><path d="M874.17 436.33C874.56 434.16 874.75 431.74 874.75 429.04" stroke="#343a40" stroke-width="2" stroke-linecap="round" stroke-linejoin="round" opacity="1" fill="none"></path><path d="M852.33 454.94C857.29 454.75 867.42 453.35 872.15 442.88" stroke="#343a40" stroke-width="2" stroke-linecap="round" stroke-linejoin="round" opacity="1" fill="none"></path><path d="M718.55 344.84C718.26 346.87 718.06 348.89 718.06 350.77 718.06 370.5 733.11 370.64 736.53 370.64 739.96 370.64 755 370.5 755 350.77 755 331.58 737.55 302.35 736.58 300.76H736.53 736.49C735.76 302.01 725.06 319.86 720.33 336.74" fill="#ac282e" opacity="1" stroke-width="2" stroke="none"></path><path d="M718.55 344.84C718.26 346.87 718.06 348.89 718.06 350.77 718.06 370.5 733.11 370.64 736.53 370.64 739.96 370.64 755 370.5 755 350.77 755 331.58 737.55 302.35 736.58 300.76H736.53 736.49C735.76 302.01 725.06 319.86 720.33 336.74" stroke="#343a40" stroke-width="2" stroke-linecap="round" stroke-linejoin="round" opacity="1" fill="none"></path><path d="M750.47 354.92C750.71 353.67 750.81 352.22 750.81 350.63" stroke="#343a40" stroke-width="2" stroke-linecap="round" stroke-linejoin="round" opacity="1" fill="none"></path><path d="M737.69 365.87C740.59 365.77 746.52 364.95 749.31 358.78" stroke="#343a40" stroke-width="2" stroke-linecap="round" stroke-linejoin="round" opacity="1" fill="none"></path><path d="M798.22 265.07C798.17 265.07 798.12 265.07 798.12 265.07 797.4 266.33 786.93 283.88 786.93 295.46 786.93 307.46 796.09 307.56 798.17 307.56 800.24 307.56 809.4 307.46 809.4 295.46 809.4 283.93 798.94 266.33 798.22 265.07Z" fill="#ac282e" stroke="#343a40" stroke-width="2" stroke-linecap="round" stroke-linejoin="round" opacity="1"></path><path d="M798.89 303.32C800.48 303.27 803.71 302.79 805.26 299.46" stroke="#343a40" stroke-width="2" stroke-linecap="round" stroke-linejoin="round" opacity="1" fill="none"></path></g><g><path d="M960.2 519.4V592.7" stroke="#343a40" stroke-width="2" stroke-linecap="round" stroke-linejoin="round" opacity="1" fill="none"></path><path d="M1007.6 442.8C1009.1 445.5 1010.3 448.3 1011.3 451.2 1012 453.3 1012.6 455.5 1013.1 457.8 1013.8 461.3 1014.2 465 1014.2 468.7 1014.2 498.6 990 522.8 960.1 522.8 930.2 522.8 906 498.6 906 468.7 906 438.8 930.2 414.6 960.1 414.6 976.6 414.6 991.3 422 1001.2 433.5" fill="#b14749" opacity="1" stroke-width="2" stroke="none"></path><path d="M1007.6 442.8C1009.1 445.5 1010.3 448.3 1011.3 451.2 1012 453.3 1012.6 455.5 1013.1 457.8 1013.8 461.3 1014.2 465 1014.2 468.7 1014.2 498.6 990 522.8 960.1 522.8 930.2 522.8 906 498.6 906 468.7 906 438.8 930.2 414.6 960.1 414.6 976.6 414.6 991.3 422 1001.2 433.5" stroke="#343a40" stroke-width="2" stroke-linecap="round" stroke-linejoin="round" opacity="1" fill="none"></path><path d="M967.7 464.5L959.1 455.9 968 442.2C971.4 437 978.6 436.3 983 440.6 987.4 445 986.6 452.2 981.4 455.6L967.7 464.5Z" stroke="#343a40" stroke-width="2" stroke-linecap="round" stroke-linejoin="round" opacity="1" fill="none"></path><path d="M949.3 465.7L957.9 474.3 949 488C945.6 493.2 938.4 493.9 934 489.6 929.6 485.2 930.4 478 935.6 474.6L949.3 465.7Z" stroke="#343a40" stroke-width="2" stroke-linecap="round" stroke-linejoin="round" opacity="1" fill="none"></path><path d="M956.2 453L970.5 467.4" stroke="#343a40" stroke-width="2" stroke-linecap="round" stroke-linejoin="round" opacity="1" fill="none"></path><path d="M951.3 457.9L965.7 472.3" stroke="#343a40" stroke-width="2" stroke-linecap="round" stroke-linejoin="round" opacity="1" fill="none"></path><path d="M946.4 462.8L960.8 477.2" stroke="#343a40" stroke-width="2" stroke-linecap="round" stroke-linejoin="round" opacity="1" fill="none"></path><path d="M957.9 474.3L962 495.3C962.4 497.4 961.7 499.5 960.3 501 957.8 503.5 953.8 503.5 951.3 501" stroke="#343a40" stroke-width="2" stroke-linecap="round" stroke-linejoin="round" opacity="1" fill="none"></path><path d="M943.2 500.9C945.4 498.7 949 498.7 951.2 500.9L951.3 501" stroke="#343a40" stroke-width="2" stroke-linecap="round" stroke-linejoin="round" opacity="1" fill="none"></path></g><g><path d="M1286.36 260.18H1331.8C1331.8 237.56 1313.49 219.25 1290.87 219.25H1268.38V197.16C1268.38 173.4 1249.12 154.14 1225.36 154.14L1174.93 154.14C1158.5 154.14 1145.24 167.4 1145.24 183.83L1052.12 183.83C1026.47 183.83 1005.67 204.64 1005.67 230.29V239.58H1050.3 951.53C940.16 239.58 931 248.8 931 260.11H966.35" fill="#b14749" opacity="1" stroke-width="2" stroke="none"></path><path d="M1286.36 260.18H1331.8C1331.8 237.56 1313.49 219.25 1290.87 219.25H1268.38V197.16C1268.38 173.4 1249.12 154.14 1225.36 154.14L1174.93 154.14C1158.5 154.14 1145.24 167.4 1145.24 183.83L1052.12 183.83C1026.47 183.83 1005.67 204.64 1005.67 230.29V239.58H1050.3 951.53C940.16 239.58 931 248.8 931 260.11H966.35" stroke="#343a40" stroke-width="2" stroke-linecap="round" stroke-linejoin="round" opacity="1" fill="none"></path><path d="M1145.24 183.83H1176.21" stroke="#343a40" stroke-width="2" stroke-linecap="round" stroke-linejoin="round" opacity="1" fill="none"></path><path d="M1188.06 183.83H1195.26" stroke="#343a40" stroke-width="2" stroke-linecap="round" stroke-linejoin="round" opacity="1" fill="none"></path><path d="M1268.38 219.31H1233.77" stroke="#343a40" stroke-width="2" stroke-linecap="round" stroke-linejoin="round" opacity="1" fill="none"></path></g><g><path d="M488.93 283.5H615.4C624.9 283.5 632.67 275.14 632.67 264.72 632.67 254.39 624.98 245.94 615.4 245.94L459.77 245.94C450.27 245.94 442.5 254.3 442.5 264.72 442.5 275.05 450.19 283.5 459.77 283.5H476.7" fill="#b14749" opacity="1" stroke-width="2" stroke="none"></path><path d="M488.93 283.5H615.4C624.9 283.5 632.67 275.14 632.67 264.72 632.67 254.39 624.98 245.94 615.4 245.94L459.77 245.94C450.27 245.94 442.5 254.3 442.5 264.72 442.5 275.05 450.19 283.5 459.77 283.5H476.7" stroke="#343a40" stroke-width="2" stroke-linecap="round" stroke-linejoin="round" opacity="1" fill="none"></path><path d="M632.5 181.62L727.58 181.62C716.18 181.62 706.93 171.56 706.93 159.16 706.93 146.76 716.18 136.7 727.58 136.7L839.76 136.7C851.16 136.7 860.41 146.76 860.41 159.16 860.41 171.56 851.16 181.62 839.76 181.62L884.04 181.62C891.72 181.62 897.92 188.36 897.92 196.71 897.92 205.07 891.72 211.81 884.04 211.81L632.5 211.81C624.82 211.81 618.62 205.07 618.62 196.71 618.62 188.45 624.82 181.62 632.5 181.62Z" fill="#b14749" stroke="#343a40" stroke-width="2" stroke-linecap="round" stroke-linejoin="round" opacity="1"></path></g><g><path d="M1233.9 877.5C1236.1 877.5 1168.6 877.5 1112.3 877.5 1063.9 877.5 1016.6 863.3 976.3 836.6L974.6 835.5C934.2 808.8 886.9 794.6 838.6 794.6 793.7 794.6 749.6 806.9 711.1 830.1L691.3 842C652.8 865.2 608.8 877.5 563.8 877.5H336.8C286.6 877.5 245.9 918.2 245.9 968.4 245.9 1018.6 286.6 1059.3 336.8 1059.3H985.6C1039 1059.3 1090.2 1038.1 1127.9 1000.3 1165.6 962.5 1216.8 941.3 1270.2 941.3H1372.2C1398.9 941.3 1420.5 919.7 1420.5 893 1420.5 866.3 1398.9 844.7 1372.2 844.7H1197.8C1188.8 844.7 1181.5 852 1181.5 861 1181.5 870 1188.8 877.3 1197.8 877.3H1233.9V877.5Z" fill="#ac282e" stroke="#343a40" stroke-width="2" stroke-linecap="round" stroke-linejoin="round" opacity="1"></path></g></svg>